REM DIRINDEX 1\2\5,1\2\6,1\2\7,1\2\8,1\3\9,1\3\10,1\3\11,1\4\12,1\4\13,1\4\14,1\4\15,1\4\16
REM DIRNAME folder01,folder02,folder03,folder04,folder05,folder06,folder07,folder08,folder09,folder10,folder11,folder12,folder13,folder14,folder15,folder16
TITLE ""
FILE "1200_sec01_0230_0241.mp3" MP3
  TRACK 01 AUDIO
    TITLE "0:"
    INDEX 01 00:00:00
  TRACK 02 AUDIO
    TITLE "12:cjc034_04554"
    INDEX 01 00:00:19
  TRACK 03 AUDIO
    TITLE "0:"
    INDEX 01 00:03:15
  TRACK 04 AUDIO
    TITLE "13:cjc034_04555"
    INDEX 01 00:03:47
  TRACK 05 AUDIO
    TITLE "0:"
    INDEX 01 00:05:07
  TRACK 06 AUDIO
    TITLE "14:cjc034_04556"
    INDEX 01 00:05:40
  TRACK 07 AUDIO
    TITLE "0:"
    INDEX 01 00:08:38
  TRACK 08 AUDIO
    TITLE "15:cjc034_04557"
    INDEX 01 00:08:70
  TRACK 09 AUDIO
    TITLE "0:"
    INDEX 01 00:13:33
  TRACK 10 AUDIO
    TITLE "12:cjc034_04558"
    INDEX 01 00:14:66
  TRACK 11 AUDIO
    TITLE "0:"
    INDEX 01 00:16:32
  TRACK 12 AUDIO
    TITLE "13:cjc034_04559"
    INDEX 01 00:16:65
  TRACK 13 AUDIO
    TITLE "0:"
    INDEX 01 00:19:60
  TRACK 14 AUDIO
    TITLE "14:cjc034_04560"
    INDEX 01 00:20:18
  TRACK 15 AUDIO
    TITLE "0:"
    INDEX 01 00:21:57
  TRACK 16 AUDIO
    TITLE "15:cjc034_04561"
    INDEX 01 00:22:19
  TRACK 17 AUDIO
    TITLE "0:"
    INDEX 01 00:24:69
  TRACK 18 AUDIO
    TITLE "12:cjc034_04562"
    INDEX 01 00:26:28
  TRACK 19 AUDIO
    TITLE "0:"
    INDEX 01 00:27:51
  TRACK 20 AUDIO
    TITLE "13:cjc034_04563"
    INDEX 01 00:28:08
  TRACK 21 AUDIO
    TITLE "0:"
    INDEX 01 00:31:02
  TRACK 22 AUDIO
    TITLE "14:cjc034_04564"
    INDEX 01 00:31:37
  TRACK 23 AUDIO
    TITLE "0:"
    INDEX 01 00:32:60
  TRACK 24 AUDIO
    TITLE "15:cjc034_04565"
    INDEX 01 00:33:17
  TRACK 25 AUDIO
    TITLE "0:"
    INDEX 01 00:36:54
  TRACK 26 AUDIO
    TITLE "12:cjc034_04566"
    INDEX 01 00:38:12
  TRACK 27 AUDIO
    TITLE "0:"
    INDEX 01 00:39:41
  TRACK 28 AUDIO
    TITLE "13:cjc034_04567"
    INDEX 01 00:39:72
  TRACK 29 AUDIO
    TITLE "0:"
    INDEX 01 00:42:18
  TRACK 30 AUDIO
    TITLE "14:cjc034_04568"
    INDEX 01 00:42:51
  TRACK 31 AUDIO
    TITLE "0:"
    INDEX 01 00:44:05
  TRACK 32 AUDIO
    TITLE "15:cjc034_04569"
    INDEX 01 00:44:34
  TRACK 33 AUDIO
    TITLE "0:"
    INDEX 01 00:47:68
  TRACK 34 AUDIO
    TITLE "12:cjc034_04570"
    INDEX 01 00:49:27
  TRACK 35 AUDIO
    TITLE "0:"
    INDEX 01 00:53:33
  TRACK 36 AUDIO
    TITLE "13:cjc034_04571"
    INDEX 01 00:53:66
  TRACK 37 AUDIO
    TITLE "0:"
    INDEX 01 00:55:08
  TRACK 38 AUDIO
    TITLE "14:cjc034_04572"
    INDEX 01 00:55:42
  TRACK 39 AUDIO
    TITLE "0:"
    INDEX 01 00:59:47
  TRACK 40 AUDIO
    TITLE "15:cjc034_04573"
    INDEX 01 01:00:08
  TRACK 41 AUDIO
    TITLE "0:"
    INDEX 01 01:04:45
  TRACK 42 AUDIO
    TITLE "12:cjc034_04574"
    INDEX 01 01:06:02
  TRACK 43 AUDIO
    TITLE "0:"
    INDEX 01 01:08:05
  TRACK 44 AUDIO
    TITLE "13:cjc034_04575"
    INDEX 01 01:08:36
  TRACK 45 AUDIO
    TITLE "0:"
    INDEX 01 01:09:50
  TRACK 46 AUDIO
    TITLE "14:cjc034_04576"
    INDEX 01 01:10:06
  TRACK 47 AUDIO
    TITLE "0:"
    INDEX 01 01:12:05
  TRACK 48 AUDIO
    TITLE "15:cjc034_04577"
    INDEX 01 01:12:40
  TRACK 49 AUDIO
    TITLE "0:"
    INDEX 01 01:17:00
  TRACK 50 AUDIO
    TITLE "12:cjc034_04578"
    INDEX 01 01:18:31
  TRACK 51 AUDIO
    TITLE "0:"
    INDEX 01 01:19:72
  TRACK 52 AUDIO
    TITLE "13:cjc034_04579"
    INDEX 01 01:20:30
  TRACK 53 AUDIO
    TITLE "0:"
    INDEX 01 01:21:47
  TRACK 54 AUDIO
    TITLE "14:cjc034_04580"
    INDEX 01 01:22:05
  TRACK 55 AUDIO
    TITLE "0:"
    INDEX 01 01:23:44
  TRACK 56 AUDIO
    TITLE "15:cjc034_04581"
    INDEX 01 01:24:02
  TRACK 57 AUDIO
    TITLE "0:"
    INDEX 01 01:27:14
  TRACK 58 AUDIO
    TITLE "12:cjc034_04582"
    INDEX 01 01:28:49
  TRACK 59 AUDIO
    TITLE "0:"
    INDEX 01 01:30:15
  TRACK 60 AUDIO
    TITLE "13:cjc034_04583"
    INDEX 01 01:30:50
  TRACK 61 AUDIO
    TITLE "0:"
    INDEX 01 01:31:59
  TRACK 62 AUDIO
    TITLE "14:cjc034_04584"
    INDEX 01 01:32:17
  TRACK 63 AUDIO
    TITLE "0:"
    INDEX 01 01:33:60
  TRACK 64 AUDIO
    TITLE "15:cjc034_04585"
    INDEX 01 01:34:18
  TRACK 65 AUDIO
    TITLE "0:"
    INDEX 01 01:38:45
  TRACK 66 AUDIO
    TITLE "12:cjc034_04586"
    INDEX 01 01:40:05
  TRACK 67 AUDIO
    TITLE "0:"
    INDEX 01 01:41:71
  TRACK 68 AUDIO
    TITLE "13:cjc034_04587"
    INDEX 01 01:42:31
  TRACK 69 AUDIO
    TITLE "0:"
    INDEX 01 01:44:11
  TRACK 70 AUDIO
    TITLE "14:cjc034_04588"
    INDEX 01 01:44:46
  TRACK 71 AUDIO
    TITLE "0:"
    INDEX 01 01:46:39
  TRACK 72 AUDIO
    TITLE "15:cjc034_04589"
    INDEX 01 01:46:72
  TRACK 73 AUDIO
    TITLE "0:"
    INDEX 01 01:51:56
  TRACK 74 AUDIO
    TITLE "12:cjc034_04590"
    INDEX 01 01:53:16
  TRACK 75 AUDIO
    TITLE "0:"
    INDEX 01 01:56:71
  TRACK 76 AUDIO
    TITLE "13:cjc034_04591"
    INDEX 01 01:57:31
  TRACK 77 AUDIO
    TITLE "0:"
    INDEX 01 02:01:23
  TRACK 78 AUDIO
    TITLE "14:cjc034_04592"
    INDEX 01 02:01:56
  TRACK 79 AUDIO
    TITLE "0:"
    INDEX 01 02:05:38
  TRACK 80 AUDIO
    TITLE "15:cjc034_04593"
    INDEX 01 02:05:74
  TRACK 81 AUDIO
    TITLE "0:"
    INDEX 01 02:09:38
  TRACK 82 AUDIO
    TITLE "12:cjc034_04594"
    INDEX 01 02:11:00
  TRACK 83 AUDIO
    TITLE "0:"
    INDEX 01 02:12:66
  TRACK 84 AUDIO
    TITLE "13:cjc034_04595"
    INDEX 01 02:13:22
  TRACK 85 AUDIO
    TITLE "0:"
    INDEX 01 02:14:51
  TRACK 86 AUDIO
    TITLE "14:cjc034_04596"
    INDEX 01 02:15:09
  TRACK 87 AUDIO
    TITLE "0:"
    INDEX 01 02:17:00
  TRACK 88 AUDIO
    TITLE "15:cjc034_04597"
    INDEX 01 02:17:32
  TRACK 89 AUDIO
    TITLE "0:"
    INDEX 01 02:20:71
  TRACK 90 AUDIO
    TITLE "12:cjc034_04598"
    INDEX 01 02:22:33
  TRACK 91 AUDIO
    TITLE "0:"
    INDEX 01 02:25:29
  TRACK 92 AUDIO
    TITLE "13:cjc034_04599"
    INDEX 01 02:25:67
  TRACK 93 AUDIO
    TITLE "0:"
    INDEX 01 02:26:74
  TRACK 94 AUDIO
    TITLE "14:cjc034_04600"
    INDEX 01 02:27:32
  TRACK 95 AUDIO
    TITLE "0:"
    INDEX 01 02:30:30
  TRACK 96 AUDIO
    TITLE "15:cjc034_04601"
    INDEX 01 02:30:66
  TRACK 97 AUDIO
    TITLE "0:"
    INDEX 01 02:36:57
